<svg width="97" height="100" viewBox="0 0 97 100" fill="none" xmlns="http://www.w3.org/2000/svg">
<path d="M82.0135 25.5977L83.5 53.0976L42.5 96.5976L3 59.0976L44 16.0976H71M82.0135 25.5977L81.5 16.0976H71M82.0135 25.5977C111 4.09768 81.5 -9.90231 71 16.0976M71 16.0976L66.3333 28.0977M64 34.0977L66.3333 28.0977M66.3333 28.0977C56.5 26.5977 54.5 38.0068 63 41.0977C72 44.3704 75 29.4197 66.3333 28.0977ZM39 32.5977L67 59.0977M29 63.0977C30.0029 65.0123 31.172 66.5113 32.368 67.5977M47 58.5977C46.6543 57.33 45.857 56.328 44.8592 55.5977M30 70.5977L32.368 67.5977M32.368 67.5977C37.7307 72.4693 43.6324 69.0449 37.5 57.5977C35.961 53.7501 41.5278 53.1594 44.8592 55.5977M44.8592 55.5977L47 52.5977" stroke="black" stroke-width="4"/>
</svg>
