<svg width="86" height="103" viewBox="0 0 86 103" fill="none" xmlns="http://www.w3.org/2000/svg">
<path d="M37 68.51L25 98.01L17.5 86.01L4 90.01L19.5 51.51M19.5 51.51C-1 23.01 33 -14.6849 64 10.01C84.8903 26.6514 70.8575 60.8044 47.5 63.4818M19.5 51.51C29.2458 61.2557 38.9916 64.4571 47.5 63.4818M47.5 63.4818L62 98.01L69.5 86.01L82.5 90.01L70 58.01M67.5 30.01C62 -1.99002 19.5 4.50998 19.5 33.01C19.5 65.51 65.5 63.4818 67.5 34.51M43.5 16.01L37.5 25.51L26.5 27.01L35 35.51L33.5 46.51L43.5 42.51L53.5 46.51L52.5 35.51L60 27.01L49 25.51L43.5 16.01Z" stroke="black" stroke-width="4"/>
</svg>
