<svg width="102" height="87" viewBox="0 0 102 87" fill="none" xmlns="http://www.w3.org/2000/svg">
<circle cx="90.5" cy="27.5" r="2.5" fill="black"/>
<path d="M63.5 11.5L89.5 38M63.5 11.5C51.7302 7.12009 38 5 32 7.49999C9.16573 20.6175 25.0412 46.9528 36.0504 25.5002C36.649 24.3338 37.8868 23.5985 39.1899 23.7433L49.4707 24.8856C50.1376 24.9597 50.7604 25.2553 51.2396 25.7251L76 50M63.5 11.5L71.4384 3.56158C72.5864 2.4136 74.4393 2.38713 75.6196 3.50186L98.2558 24.8804C99.4847 26.0411 99.5125 27.9875 98.3172 29.1828L89.5 38M89.5 38L76 50M76 50L82 55.5C84.5 58 77.5 66 74.5 63M2.5 31L17 45.5M61 76.5C64 79.5 57.5 86 54.5 83L43.75 72.25M61 76.5C64 79.5 71 72.5 68 69.5M61 76.5L47.5 63M68 69.5C71 72.5 77.5 66 74.5 63M68 69.5L54.5 56M74.5 63L61 49.5M17 45.5L11.5 51.5C8.5 54.5 15.0184 60.9816 18 58M17 45.5L23.75 52.25M18 58C15 61 22 68 25 65M18 58L23.75 52.25M25 65C22 68 28.6037 74.3963 31.5 71.5M25 65L30.75 59.25M31.5 71.5C28.6037 74.3963 35 81 38 78L43.75 72.25M31.5 71.5L37.25 65.75M43.75 72.25L37.25 65.75M37.25 65.75L30.75 59.25M30.75 59.25L23.75 52.25" stroke="black" stroke-width="4"/>
</svg>
