<svg width="178" height="56" viewBox="0 0 178 56" fill="none" xmlns="http://www.w3.org/2000/svg">
<path d="M39.1481 54.2124L8.46445 48.8021C4.76127 48.1491 0.834196 42.5786 1.48302 38.899L6.85894 8.41056C7.50776 4.73093 13.1032 0.839511 16.8064 1.49248L47.4901 6.90284C51.1833 7.61241 54.9349 14.1776 54.3788 17.3316L49.0956 47.2944C48.5173 50.9864 42.8513 54.8654 39.1481 54.2124Z" fill="#8C8C8C"/>
<path d="M4.80652 13.676V42.676C4.80652 46.176 9.30652 50.7427 12.8065 50.676H41.3065C44.3065 50.676 49.7527 46.176 49.8065 42.676V13.676C49.8065 10.176 45.3065 5.67603 41.8065 5.67603H12.8065C9.30652 5.67603 4.80652 10.176 4.80652 13.676Z" fill="white"/>
<path fill-rule="evenodd" clip-rule="evenodd" d="M169.5 22.5C159 22.5 159 39.5 169.5 39.5C180 39.5 180 22.5 169.5 22.5ZM169.5 25.5C163 25.5 163 36.5 169.5 36.5C176 36.5 176 25.5 169.5 25.5Z" fill="white"/>
<path d="M142.5 22.5V39.5H145.5V31.5H153.5V39.5H156.5V22.5H153.5V28.5H145.5V22.5H142.5Z" fill="white"/>
<path d="M122.5 22.5V39.5H125.5L133.5 27.5V39.5H136.5V22.5H133.5L125.5 34.5V22.5H122.5Z" fill="white"/>
<path d="M107.5 22.5V39.5H110.5V24.5H118.5V22.5H107.5Z" fill="white"/>
<path fill-rule="evenodd" clip-rule="evenodd" d="M63 39.5L70.5 16.5H75.5L82.5 39.5H79.5L77.5 34.5H68L66.5 39.5H63ZM76.5 30.5H69.5L73 20.5L76.5 30.5Z" fill="white"/>
<path d="M98.5 24.5V39.5H101.5V22.5H89.5V36.5L87 38.5V39.5H90.5L92.5 38.5V24.5H98.5Z" fill="white"/>
<path d="M4.80652 13.676C4.80652 17.176 4.80652 42.676 4.80652 42.676M4.80652 13.676C4.80652 10.176 9.30652 5.67603 12.8065 5.67603M4.80652 13.676V42.676M4.80652 42.676C4.80652 46.176 9.30652 50.7427 12.8065 50.676H41.3065C44.3065 50.676 49.7527 46.176 49.8065 42.676V13.676C49.8065 10.176 45.3065 5.67603 41.8065 5.67603M41.8065 5.67603C41.8065 5.67603 16.3065 5.67603 12.8065 5.67603M41.8065 5.67603H12.8065M63 39.5L70.5 16.5H75.5L82.5 39.5H79.5L77.5 34.5H68L66.5 39.5H63ZM69.5 30.5H76.5L73 20.5L69.5 30.5ZM98.5 24.5V39.5H101.5V22.5H89.5V36.5L87 38.5V39.5H90.5L92.5 38.5V24.5H98.5ZM107.5 22.5V39.5H110.5V24.5H118.5V22.5H107.5ZM122.5 22.5V39.5H125.5L133.5 27.5V39.5H136.5V22.5H133.5L125.5 34.5V22.5H122.5ZM142.5 22.5V39.5H145.5V31.5H153.5V39.5H156.5V22.5H153.5V28.5H145.5V22.5H142.5ZM169.5 25.5C163 25.5 163 36.5 169.5 36.5C176 36.5 176 25.5 169.5 25.5ZM169.5 22.5C159 22.5 159 39.5 169.5 39.5C180 39.5 180 22.5 169.5 22.5Z" stroke="white"/>
<circle cx="28.3065" cy="28.176" r="12" stroke="black" stroke-width="6"/>
</svg>
