<svg width="178" height="56" viewBox="0 0 178 56" fill="none" xmlns="http://www.w3.org/2000/svg">
<path d="M39.1481 54.2125L8.46445 48.8021C4.76127 48.1491 0.834196 42.5786 1.48302 38.899L6.85894 8.41059C7.50776 4.73096 13.1032 0.839541 16.8064 1.49251L47.4901 6.90287C51.1833 7.61244 54.9349 14.1777 54.3788 17.3316L49.0956 47.2944C48.5173 50.9865 42.8513 54.8654 39.1481 54.2125Z" fill="#A3C8FF"/>
<path d="M5 13.676V42.676C5 46.176 9.5 50.7427 13 50.676H41.5C44.5 50.676 49.9462 46.176 50 42.676V13.676C50 10.176 45.5 5.67599 42 5.67599H13C9.5 5.67599 5 10.176 5 13.676Z" fill="#005DE8"/>
<path fill-rule="evenodd" clip-rule="evenodd" d="M169.5 22.5C159 22.5 159 39.5 169.5 39.5C180 39.5 180 22.5 169.5 22.5ZM169.5 25.5C163 25.5 163 36.5 169.5 36.5C176 36.5 176 25.5 169.5 25.5Z" fill="#005DE8"/>
<path d="M142.5 22.5V39.5H145.5V31.5H153.5V39.5H156.5V22.5H153.5V28.5H145.5V22.5H142.5Z" fill="#005DE8"/>
<path d="M122.5 22.5V39.5H125.5L133.5 27.5V39.5H136.5V22.5H133.5L125.5 34.5V22.5H122.5Z" fill="#005DE8"/>
<path d="M107.5 22.5V39.5H110.5V24.5H118.5V22.5H107.5Z" fill="#005DE8"/>
<path fill-rule="evenodd" clip-rule="evenodd" d="M63.1935 39.5L70.6935 16.5H75.6935L82.6935 39.5H79.6935L77.6935 34.5H68.1935L66.6935 39.5H63.1935ZM76.6935 30.5H69.6935L73.1935 20.5L76.6935 30.5Z" fill="#005DE8"/>
<path d="M90.6935 39.5L92.6935 38.5V24.5H98.5V39.5H101.5V22.5H89.6935V36L87.1935 38.5V39.5H90.6935Z" fill="#005DE8"/>
<path d="M5 13.676C5 17.176 5 42.676 5 42.676M5 13.676C5 10.176 9.5 5.67599 13 5.67599M5 13.676V42.676M5 42.676C5 46.176 9.5 50.7427 13 50.676H41.5C44.5 50.676 49.9462 46.176 50 42.676V13.676C50 10.176 45.5 5.67599 42 5.67599M42 5.67599C42 5.67599 16.5 5.67599 13 5.67599M42 5.67599H13M63.1935 39.5L70.6935 16.5H75.6935L82.6935 39.5H79.6935L77.6935 34.5H68.1935L66.6935 39.5H63.1935ZM69.6935 30.5H76.6935L73.1935 20.5L69.6935 30.5ZM90.6935 39.5L92.6935 38.5V24.5H98.5V39.5H101.5V22.5H89.6935V36L87.1935 38.5V39.5H90.6935ZM107.5 22.5V39.5H110.5V24.5H118.5V22.5H107.5ZM122.5 22.5V39.5H125.5L133.5 27.5V39.5H136.5V22.5H133.5L125.5 34.5V22.5H122.5ZM142.5 22.5V39.5H145.5V31.5H153.5V39.5H156.5V22.5H153.5V28.5H145.5V22.5H142.5ZM169.5 25.5C163 25.5 163 36.5 169.5 36.5C176 36.5 176 25.5 169.5 25.5ZM169.5 22.5C159 22.5 159 39.5 169.5 39.5C180 39.5 180 22.5 169.5 22.5Z" stroke="#005DE8"/>
<circle cx="28.3065" cy="28.1759" r="12" stroke="white" stroke-width="6"/>
</svg>
