<svg width="56" height="56" viewBox="0 0 56 56" fill="none" xmlns="http://www.w3.org/2000/svg">
<path d="M39.1481 54.2124L8.46445 48.8021C4.76127 48.1491 0.834196 42.5786 1.48302 38.899L6.85894 8.41056C7.50776 4.73093 13.1032 0.839511 16.8064 1.49248L47.4901 6.90284C51.1833 7.61241 54.9349 14.1776 54.3788 17.3316L49.0956 47.2944C48.5173 50.9864 42.8513 54.8654 39.1481 54.2124Z" fill="#A3C8FF"/>
<path d="M6 13V42C6 45.5 10.5 50.0667 14 50H42.5C45.5 50 50.9462 45.5 51 42V13C51 9.50002 46.5 5 43 5H14C10.5 5 6 9.50002 6 13Z" fill="#005DE8"/>
<path d="M6 13C6 16.5 6 42 6 42M6 13C6 9.50002 10.5 5 14 5M6 13V42M6 42C6 45.5 10.5 50.0667 14 50H42.5C45.5 50 50.9462 45.5 51 42V13C51 9.50002 46.5 5 43 5M43 5C43 5 17.5 5 14 5M43 5H14" stroke="#005DE8"/>
<circle cx="28" cy="28" r="12" stroke="white" stroke-width="6"/>
</svg>
